<?xml version="1.0" encoding="UTF-8" standalone="no"?>
<svg
   height="17.993"
   width="37"
   fill="#1414a0"
   version="1.1"
   id="svg1"
   sodipodi:docname="necs.svg"
   inkscape:version="1.3.2 (091e20e, 2023-11-25)"
   xmlns:inkscape="http://www.inkscape.org/namespaces/inkscape"
   xmlns:sodipodi="http://sodipodi.sourceforge.net/DTD/sodipodi-0.dtd"
   xmlns="http://www.w3.org/2000/svg"
   xmlns:svg="http://www.w3.org/2000/svg">
  <defs
     id="defs1" />
  <sodipodi:namedview
     id="namedview1"
     pagecolor="#505050"
     bordercolor="#eeeeee"
     borderopacity="1"
     inkscape:showpageshadow="0"
     inkscape:pageopacity="0"
     inkscape:pagecheckerboard="0"
     inkscape:deskcolor="#505050"
     inkscape:zoom="5.1230772"
     inkscape:cx="46.749247"
     inkscape:cy="11.809309"
     inkscape:window-width="1408"
     inkscape:window-height="552"
     inkscape:window-x="194"
     inkscape:window-y="288"
     inkscape:window-maximized="0"
     inkscape:current-layer="svg1" />
  <path
     d="M 0.83090086,3.2227514 H 3.6950297 c 0.6551766,0 1.427438,0.7872549 1.7718119,1.2202615 L 10.491879,11.611498 V 3.2227514 H 12.19892 V 14.667876 H 9.2105892 C 8.6781915,14.644829 8.1555211,14.503954 7.5463718,13.733945 L 2.5296386,6.552333 v 8.115543 H 0.83090086 Z M 36.418983,14.74587 c -2.044417,0.358981 -4.112797,0.394543 -6.185328,0.170333 -1.213197,-0.137828 -2.401721,-0.458953 -3.490835,-1.190652 -1.375123,-0.916837 -1.813212,-2.977623 -1.794825,-4.8456387 0.01518,-1.7242401 0.413771,-3.5650879 1.60953,-4.5677021 0.783887,-0.6619475 1.621037,-0.8789858 2.51062,-1.0865589 2.428294,-0.5506829 4.861332,-0.4264441 7.230312,-0.09234 v 1.6326628 c -2.793783,-0.698579 -5.744865,-0.524736 -6.747618,1.126853 -0.626588,1.0274924 -0.715796,2.0496432 -0.715796,2.910161 0,1.5510059 0.412348,3.9039219 2.861875,4.3611969 1.598024,0.301745 3.180033,0.07281 4.721945,-0.288621 V 14.74587 Z M 18.923645,12.965768 h 5.413895 v 1.710045 c -2.662344,0.131867 -5.220297,0.189259 -7.909806,0.04549 -2.282145,-0.121181 -2.675275,-1.597712 -2.719404,-3.016084 V 3.2224498 h 10.501805 v 1.6296107 h -6.794002 v 2.9138236 h 6.192208 v 1.5905375 h -6.192208 c 0,0.8606704 0.02207,1.8365744 0.02847,2.0122494 0.0363,1.109607 0.43631,1.517886 1.478922,1.597101"
     id="path1"
     style="stroke-width:0.134558" />
</svg>
