<?xml version="1.0" encoding="UTF-8" standalone="no"?>
<svg
   height="81.993"
   width="302"
   fill="#1414a0"
   version="1.1"
   id="svg1"
   sodipodi:docname="necs.svg"
   inkscape:version="1.3.2 (091e20e, 2023-11-25)"
   xmlns:inkscape="http://www.inkscape.org/namespaces/inkscape"
   xmlns:sodipodi="http://sodipodi.sourceforge.net/DTD/sodipodi-0.dtd"
   xmlns="http://www.w3.org/2000/svg"
   xmlns:svg="http://www.w3.org/2000/svg">
  <defs
     id="defs1" />
  <sodipodi:namedview
     id="namedview1"
     pagecolor="#505050"
     bordercolor="#eeeeee"
     borderopacity="1"
     inkscape:showpageshadow="0"
     inkscape:pageopacity="0"
     inkscape:pagecheckerboard="0"
     inkscape:deskcolor="#505050"
     inkscape:zoom="2.7450331"
     inkscape:cx="151"
     inkscape:cy="40.983112"
     inkscape:window-width="1408"
     inkscape:window-height="552"
     inkscape:window-x="194"
     inkscape:window-y="288"
     inkscape:window-maximized="0"
     inkscape:current-layer="svg1" />
  <path
     d="m 1,72.753718 h 2.5656519 c 0.5868993,0 1.2786817,0.548112 1.5871677,0.849585 l 4.5013675,4.990928 v -5.840513 h 1.5291469 v 7.968461 H 8.5064234 C 8.029508,80.706133 7.5613062,80.608051 7.0156376,80.071946 L 2.5217087,75.071879 v 5.6503 H 1 Z m 31.879373,8.022763 c -1.831364,0.249934 -3.684193,0.274693 -5.540742,0.118591 -1.086767,-0.09596 -2.151432,-0.319538 -3.127047,-0.82897 -1.231819,-0.638331 -1.624254,-2.073116 -1.607783,-3.373688 0.0136,-1.200471 0.370651,-2.482128 1.441798,-3.18018 0.702196,-0.460869 1.452105,-0.611978 2.248983,-0.756497 2.175236,-0.383403 4.354722,-0.296904 6.476826,-0.06429 v 1.136712 c -2.502637,-0.486373 -5.146181,-0.365338 -6.044435,0.784551 -0.56129,0.715373 -0.641201,1.427027 -0.641201,2.026147 0,1.07986 0.369376,2.718035 2.563633,3.036404 1.43149,0.210085 2.848635,0.05069 4.229861,-0.200947 v 1.302167 z M 17.207261,79.537117 h 4.849702 v 1.190588 c -2.384896,0.09181 -4.676279,0.131768 -7.085509,0.03167 -2.044318,-0.08437 -2.396479,-1.112378 -2.436009,-2.099894 v -5.905973 h 9.40739 v 1.134587 H 15.85685 v 2.028697 h 5.546905 v 1.107383 H 15.85685 c 0,0.599226 0.01977,1.278682 0.0255,1.400992 0.03252,0.772544 0.390841,1.056801 1.3248,1.111953"
     id="path1"
     style="stroke-width:0.106265" />
</svg>
